<global>
amp_veltrack=0
ampeg_release=3.00

<group>
group_label=RR5
seq_length=4
seq_position=1

<region>
hivel=103
key=A#2
lovel=78
sample=Timpani_staccato_F_A#2_RR5.opus

<region>
hivel=103
key=A2
lovel=78
sample=Timpani_staccato_F_A2_RR5.opus

<region>
hivel=103
key=A3
lovel=78
sample=Timpani_staccato_F_A3_RR5.opus

<region>
hivel=103
key=B2
lovel=78
sample=Timpani_staccato_F_B2_RR5.opus

<region>
hivel=103
key=C#2
lovel=78
sample=Timpani_staccato_F_C#2_RR5.opus

<region>
hivel=103
key=C#3
lovel=78
sample=Timpani_staccato_F_C#3_RR5.opus

<region>
hivel=103
key=C2
lovel=78
sample=Timpani_staccato_F_C2_RR5.opus

<region>
hivel=103
key=C3
lovel=78
sample=Timpani_staccato_F_C3_RR5.opus

<region>
hivel=103
key=D#2
lovel=78
sample=Timpani_staccato_F_D#2_RR5.opus

<region>
hivel=103
key=D#3
lovel=78
sample=Timpani_staccato_F_D#3_RR5.opus

<region>
hivel=103
key=D2
lovel=78
sample=Timpani_staccato_F_D2_RR5.opus

<region>
hivel=103
key=D3
lovel=78
sample=Timpani_staccato_F_D3_RR5.opus

<region>
hivel=103
key=E2
lovel=78
sample=Timpani_staccato_F_E2_RR5.opus

<region>
hivel=103
key=E3
lovel=78
offset=1738
sample=Timpani_staccato_F_E3_RR5.opus

<region>
hivel=103
key=F#2
lovel=78
sample=Timpani_staccato_F_F#2_RR5.opus

<region>
hivel=103
key=F#3
lovel=78
sample=Timpani_staccato_F_F#3_RR5.opus

<region>
hivel=103
key=F2
lovel=78
sample=Timpani_staccato_F_F2_RR5.opus

<region>
hivel=103
key=F3
lovel=78
sample=Timpani_staccato_F_F3_RR5.opus

<region>
hivel=103
key=G#2
lovel=78
sample=Timpani_staccato_F_G#2_RR5.opus

<region>
hivel=103
key=G#3
lovel=78
sample=Timpani_staccato_F_G#3_RR5.opus

<region>
hivel=103
key=G2
lovel=78
sample=Timpani_staccato_F_G2_RR5.opus

<region>
hivel=103
key=G3
lovel=78
sample=Timpani_staccato_F_G3_RR5.opus

<region>
hivel=127
key=A#2
lovel=104
sample=Timpani_staccato_FF_A#2_RR5.opus

<region>
hivel=127
key=A2
lovel=104
sample=Timpani_staccato_FF_A2_RR5.opus

<region>
hivel=127
key=A3
lovel=104
sample=Timpani_staccato_FF_A3_RR5.opus

<region>
hivel=127
key=B2
lovel=104
sample=Timpani_staccato_FF_B2_RR5.opus

<region>
hivel=127
key=C#2
lovel=104
offset=292
sample=Timpani_staccato_FF_C#2_RR5.opus

<region>
hivel=127
key=C#3
lovel=104
sample=Timpani_staccato_FF_C#3_RR5.opus

<region>
hivel=127
key=C2
lovel=104
offset=146
sample=Timpani_staccato_FF_C2_RR5.opus

<region>
hivel=127
key=C3
lovel=104
sample=Timpani_staccato_FF_C3_RR5.opus

<region>
hivel=127
key=D#2
lovel=104
sample=Timpani_staccato_FF_D#2_RR5.opus

<region>
hivel=127
key=D#3
lovel=104
sample=Timpani_staccato_FF_D#3_RR5.opus

<region>
hivel=127
key=D2
lovel=104
sample=Timpani_staccato_FF_D2_RR5.opus

<region>
hivel=127
key=D3
lovel=104
sample=Timpani_staccato_FF_D3_RR5.opus

<region>
hivel=127
key=E2
lovel=104
sample=Timpani_staccato_FF_E2_RR5.opus

<region>
hivel=127
key=E3
lovel=104
sample=Timpani_staccato_FF_E3_RR5.opus

<region>
hivel=127
key=F#2
lovel=104
sample=Timpani_staccato_FF_F#2_RR5.opus

<region>
hivel=127
key=F#3
lovel=104
sample=Timpani_staccato_FF_F#3_RR5.opus

<region>
hivel=127
key=F2
lovel=104
sample=Timpani_staccato_FF_F2_RR5.opus

<region>
hivel=127
key=F3
lovel=104
sample=Timpani_staccato_FF_F3_RR5.opus

<region>
hivel=127
key=G#2
lovel=104
sample=Timpani_staccato_FF_G#2_RR5.opus

<region>
hivel=127
key=G#3
lovel=104
sample=Timpani_staccato_FF_G#3_RR5.opus

<region>
hivel=127
key=G2
lovel=104
sample=Timpani_staccato_FF_G2_RR5.opus

<region>
hivel=127
key=G3
lovel=104
sample=Timpani_staccato_FF_G3_RR5.opus

<region>
hivel=77
key=A#2
lovel=52
sample=Timpani_staccato_MF_A#2_RR5.opus

<region>
hivel=77
key=A2
lovel=52
sample=Timpani_staccato_MF_A2_RR5.opus

<region>
hivel=77
key=A3
lovel=52
sample=Timpani_staccato_MF_A3_RR5.opus

<region>
hivel=77
key=B2
lovel=52
sample=Timpani_staccato_MF_B2_RR5.opus

<region>
hivel=77
key=C#2
lovel=52
sample=Timpani_staccato_MF_C#2_RR5.opus

<region>
hivel=77
key=C#3
lovel=52
sample=Timpani_staccato_MF_C#3_RR5.opus

<region>
hivel=77
key=C2
lovel=52
sample=Timpani_staccato_MF_C2_RR5.opus

<region>
hivel=77
key=C3
lovel=52
sample=Timpani_staccato_MF_C3_RR5.opus

<region>
hivel=77
key=D#2
lovel=52
sample=Timpani_staccato_MF_D#2_RR5.opus

<region>
hivel=77
key=D#3
lovel=52
sample=Timpani_staccato_MF_D#3_RR5.opus

<region>
hivel=77
key=D2
lovel=52
sample=Timpani_staccato_MF_D2_RR5.opus

<region>
hivel=77
key=D3
lovel=52
sample=Timpani_staccato_MF_D3_RR5.opus

<region>
hivel=77
key=E2
lovel=52
sample=Timpani_staccato_MF_E2_RR5.opus

<region>
hivel=77
key=E3
lovel=52
sample=Timpani_staccato_MF_E3_RR5.opus

<region>
hivel=77
key=F#2
lovel=52
sample=Timpani_staccato_MF_F#2_RR5.opus

<region>
hivel=77
key=F#3
lovel=52
sample=Timpani_staccato_MF_F#3_RR5.opus

<region>
hivel=77
key=F2
lovel=52
sample=Timpani_staccato_MF_F2_RR5.opus

<region>
hivel=77
key=F3
lovel=52
sample=Timpani_staccato_MF_F3_RR5.opus

<region>
hivel=77
key=G#2
lovel=52
sample=Timpani_staccato_MF_G#2_RR5.opus

<region>
hivel=77
key=G#3
lovel=52
sample=Timpani_staccato_MF_G#3_RR5.opus

<region>
hivel=77
key=G2
lovel=52
sample=Timpani_staccato_MF_G2_RR5.opus

<region>
hivel=77
key=G3
lovel=52
sample=Timpani_staccato_MF_G3_RR5.opus

<region>
hivel=51
key=A#2
lovel=26
sample=Timpani_staccato_MP_A#2_RR5.opus

<region>
hivel=51
key=A2
lovel=26
offset=3074
sample=Timpani_staccato_MP_A2_RR5.opus

<region>
hivel=51
key=A3
lovel=26
offset=1176
sample=Timpani_staccato_MP_A3_RR5.opus

<region>
hivel=51
key=B2
lovel=26
offset=2689
sample=Timpani_staccato_MP_B2_RR5.opus

<region>
hivel=51
key=C#2
lovel=26
offset=2629
sample=Timpani_staccato_MP_C#2_RR5.opus

<region>
hivel=51
key=C#3
lovel=26
offset=2075
sample=Timpani_staccato_MP_C#3_RR5.opus

<region>
hivel=51
key=C2
lovel=26
offset=4017
sample=Timpani_staccato_MP_C2_RR5.opus

<region>
hivel=51
key=C3
lovel=26
offset=660
sample=Timpani_staccato_MP_C3_RR5.opus

<region>
hivel=51
key=D#2
lovel=26
sample=Timpani_staccato_MP_D#2_RR5.opus

<region>
hivel=51
key=D#3
lovel=26
offset=2127
sample=Timpani_staccato_MP_D#3_RR5.opus

<region>
hivel=51
key=D2
lovel=26
offset=3970
sample=Timpani_staccato_MP_D2_RR5.opus

<region>
hivel=51
key=D3
lovel=26
offset=554
sample=Timpani_staccato_MP_D3_RR5.opus

<region>
hivel=51
key=E2
lovel=26
offset=2901
sample=Timpani_staccato_MP_E2_RR5.opus

<region>
hivel=51
key=E3
lovel=26
sample=Timpani_staccato_MP_E3_RR5.opus

<region>
hivel=51
key=F#2
lovel=26
offset=675
sample=Timpani_staccato_MP_F#2_RR5.opus

<region>
hivel=51
key=F#3
lovel=26
offset=2294
sample=Timpani_staccato_MP_F#3_RR5.opus

<region>
hivel=51
key=F2
lovel=26
offset=4775
sample=Timpani_staccato_MP_F2_RR5.opus

<region>
hivel=51
key=F3
lovel=26
sample=Timpani_staccato_MP_F3_RR5.opus

<region>
hivel=51
key=G#2
lovel=26
sample=Timpani_staccato_MP_G#2_RR5.opus

<region>
hivel=51
key=G#3
lovel=26
offset=841
sample=Timpani_staccato_MP_G#3_RR5.opus

<region>
hivel=51
key=G2
lovel=26
sample=Timpani_staccato_MP_G2_RR5.opus

<region>
hivel=51
key=G3
lovel=26
sample=Timpani_staccato_MP_G3_RR5.opus

<region>
hivel=25
key=A#2
lovel=0
offset=3556
sample=Timpani_staccato_P_A#2_RR5.opus

<region>
hivel=25
key=A2
lovel=0
sample=Timpani_staccato_P_A2_RR5.opus

<region>
hivel=25
key=A3
lovel=0
offset=2358
sample=Timpani_staccato_P_A3_RR5.opus

<region>
hivel=25
key=B2
lovel=0
offset=2527
sample=Timpani_staccato_P_B2_RR5.opus

<region>
hivel=25
key=C#2
lovel=0
offset=5044
sample=Timpani_staccato_P_C#2_RR5.opus

<region>
hivel=25
key=C#3
lovel=0
offset=884
sample=Timpani_staccato_P_C#3_RR5.opus

<region>
hivel=25
key=C2
lovel=0
sample=Timpani_staccato_P_C2_RR5.opus

<region>
hivel=25
key=C3
lovel=0
offset=4425
sample=Timpani_staccato_P_C3_RR5.opus

<region>
hivel=25
key=D#2
lovel=0
sample=Timpani_staccato_P_D#2_RR5.opus

<region>
hivel=25
key=D#3
lovel=0
offset=1455
sample=Timpani_staccato_P_D#3_RR5.opus

<region>
hivel=25
key=D2
lovel=0
offset=4119
sample=Timpani_staccato_P_D2_RR5.opus

<region>
hivel=25
key=D3
lovel=0
offset=2412
sample=Timpani_staccato_P_D3_RR5.opus

<region>
hivel=25
key=E2
lovel=0
offset=5551
sample=Timpani_staccato_P_E2_RR5.opus

<region>
hivel=25
key=E3
lovel=0
sample=Timpani_staccato_P_E3_RR5.opus

<region>
hivel=25
key=F#2
lovel=0
offset=1870
sample=Timpani_staccato_P_F#2_RR5.opus

<region>
hivel=25
key=F#3
lovel=0
sample=Timpani_staccato_P_F#3_RR5.opus

<region>
hivel=25
key=F2
lovel=0
offset=3820
sample=Timpani_staccato_P_F2_RR5.opus

<region>
hivel=25
key=F3
lovel=0
offset=1200
sample=Timpani_staccato_P_F3_RR5.opus

<region>
hivel=25
key=G#2
lovel=0
offset=835
sample=Timpani_staccato_P_G#2_RR5.opus

<region>
hivel=25
key=G#3
lovel=0
sample=Timpani_staccato_P_G#3_RR5.opus

<region>
hivel=25
key=G2
lovel=0
sample=Timpani_staccato_P_G2_RR5.opus

<region>
hivel=25
key=G3
lovel=0
sample=Timpani_staccato_P_G3_RR5.opus

<group>
group_label=RR6
seq_length=4
seq_position=2

<region>
hivel=103
key=A#2
lovel=78
sample=Timpani_staccato_F_A#2_RR6.opus

<region>
hivel=103
key=A2
lovel=78
sample=Timpani_staccato_F_A2_RR6.opus

<region>
hivel=103
key=A3
lovel=78
sample=Timpani_staccato_F_A3_RR6.opus

<region>
hivel=103
key=B2
lovel=78
sample=Timpani_staccato_F_B2_RR6.opus

<region>
hivel=103
key=C#2
lovel=78
sample=Timpani_staccato_F_C#2_RR6.opus

<region>
hivel=103
key=C#3
lovel=78
sample=Timpani_staccato_F_C#3_RR6.opus

<region>
hivel=103
key=C2
lovel=78
sample=Timpani_staccato_F_C2_RR6.opus

<region>
hivel=103
key=C3
lovel=78
sample=Timpani_staccato_F_C3_RR6.opus

<region>
hivel=103
key=D#2
lovel=78
sample=Timpani_staccato_F_D#2_RR6.opus

<region>
hivel=103
key=D#3
lovel=78
sample=Timpani_staccato_F_D#3_RR6.opus

<region>
hivel=103
key=D2
lovel=78
sample=Timpani_staccato_F_D2_RR6.opus

<region>
hivel=103
key=D3
lovel=78
sample=Timpani_staccato_F_D3_RR6.opus

<region>
hivel=103
key=E2
lovel=78
sample=Timpani_staccato_F_E2_RR6.opus

<region>
hivel=103
key=E3
lovel=78
sample=Timpani_staccato_F_E3_RR6.opus

<region>
hivel=103
key=F#2
lovel=78
sample=Timpani_staccato_F_F#2_RR6.opus

<region>
hivel=103
key=F#3
lovel=78
sample=Timpani_staccato_F_F#3_RR6.opus

<region>
hivel=103
key=F2
lovel=78
sample=Timpani_staccato_F_F2_RR6.opus

<region>
hivel=103
key=F3
lovel=78
sample=Timpani_staccato_F_F3_RR6.opus

<region>
hivel=103
key=G#2
lovel=78
offset=650
sample=Timpani_staccato_F_G#2_RR6.opus

<region>
hivel=103
key=G#3
lovel=78
sample=Timpani_staccato_F_G#3_RR6.opus

<region>
hivel=103
key=G2
lovel=78
sample=Timpani_staccato_F_G2_RR6.opus

<region>
hivel=103
key=G3
lovel=78
sample=Timpani_staccato_F_G3_RR6.opus

<region>
hivel=127
key=A#2
lovel=104
sample=Timpani_staccato_FF_A#2_RR6.opus

<region>
hivel=127
key=A2
lovel=104
sample=Timpani_staccato_FF_A2_RR6.opus

<region>
hivel=127
key=A3
lovel=104
sample=Timpani_staccato_FF_A3_RR6.opus

<region>
hivel=127
key=B2
lovel=104
sample=Timpani_staccato_FF_B2_RR6.opus

<region>
hivel=127
key=C#2
lovel=104
sample=Timpani_staccato_FF_C#2_RR6.opus

<region>
hivel=127
key=C#3
lovel=104
sample=Timpani_staccato_FF_C#3_RR6.opus

<region>
hivel=127
key=C2
lovel=104
offset=55
sample=Timpani_staccato_FF_C2_RR6.opus

<region>
hivel=127
key=C3
lovel=104
sample=Timpani_staccato_FF_C3_RR6.opus

<region>
hivel=127
key=D#2
lovel=104
sample=Timpani_staccato_FF_D#2_RR6.opus

<region>
hivel=127
key=D#3
lovel=104
sample=Timpani_staccato_FF_D#3_RR6.opus

<region>
hivel=127
key=D2
lovel=104
sample=Timpani_staccato_FF_D2_RR6.opus

<region>
hivel=127
key=D3
lovel=104
sample=Timpani_staccato_FF_D3_RR6.opus

<region>
hivel=127
key=E2
lovel=104
sample=Timpani_staccato_FF_E2_RR6.opus

<region>
hivel=127
key=E3
lovel=104
sample=Timpani_staccato_FF_E3_RR6.opus

<region>
hivel=127
key=F#2
lovel=104
sample=Timpani_staccato_FF_F#2_RR6.opus

<region>
hivel=127
key=F#3
lovel=104
sample=Timpani_staccato_FF_F#3_RR6.opus

<region>
hivel=127
key=F2
lovel=104
sample=Timpani_staccato_FF_F2_RR6.opus

<region>
hivel=127
key=F3
lovel=104
sample=Timpani_staccato_FF_F3_RR6.opus

<region>
hivel=127
key=G#2
lovel=104
sample=Timpani_staccato_FF_G#2_RR6.opus

<region>
hivel=127
key=G#3
lovel=104
sample=Timpani_staccato_FF_G#3_RR6.opus

<region>
hivel=127
key=G2
lovel=104
sample=Timpani_staccato_FF_G2_RR6.opus

<region>
hivel=127
key=G3
lovel=104
sample=Timpani_staccato_FF_G3_RR6.opus

<region>
hivel=77
key=A#2
lovel=52
sample=Timpani_staccato_MF_A#2_RR6.opus

<region>
hivel=77
key=A2
lovel=52
sample=Timpani_staccato_MF_A2_RR6.opus

<region>
hivel=77
key=A3
lovel=52
sample=Timpani_staccato_MF_A3_RR6.opus

<region>
hivel=77
key=B2
lovel=52
sample=Timpani_staccato_MF_B2_RR6.opus

<region>
hivel=77
key=C#2
lovel=52
sample=Timpani_staccato_MF_C#2_RR6.opus

<region>
hivel=77
key=C#3
lovel=52
sample=Timpani_staccato_MF_C#3_RR6.opus

<region>
hivel=77
key=C2
lovel=52
sample=Timpani_staccato_MF_C2_RR6.opus

<region>
hivel=77
key=C3
lovel=52
sample=Timpani_staccato_MF_C3_RR6.opus

<region>
hivel=77
key=D#2
lovel=52
sample=Timpani_staccato_MF_D#2_RR6.opus

<region>
hivel=77
key=D#3
lovel=52
sample=Timpani_staccato_MF_D#3_RR6.opus

<region>
hivel=77
key=D2
lovel=52
sample=Timpani_staccato_MF_D2_RR6.opus

<region>
hivel=77
key=D3
lovel=52
sample=Timpani_staccato_MF_D3_RR6.opus

<region>
hivel=77
key=E2
lovel=52
sample=Timpani_staccato_MF_E2_RR6.opus

<region>
hivel=77
key=E3
lovel=52
sample=Timpani_staccato_MF_E3_RR6.opus

<region>
hivel=77
key=F#2
lovel=52
sample=Timpani_staccato_MF_F#2_RR6.opus

<region>
hivel=77
key=F#3
lovel=52
sample=Timpani_staccato_MF_F#3_RR6.opus

<region>
hivel=77
key=F2
lovel=52
sample=Timpani_staccato_MF_F2_RR6.opus

<region>
hivel=77
key=F3
lovel=52
sample=Timpani_staccato_MF_F3_RR6.opus

<region>
hivel=77
key=G#2
lovel=52
sample=Timpani_staccato_MF_G#2_RR6.opus

<region>
hivel=77
key=G#3
lovel=52
sample=Timpani_staccato_MF_G#3_RR6.opus

<region>
hivel=77
key=G2
lovel=52
sample=Timpani_staccato_MF_G2_RR6.opus

<region>
hivel=77
key=G3
lovel=52
sample=Timpani_staccato_MF_G3_RR6.opus

<region>
hivel=51
key=A#2
lovel=26
sample=Timpani_staccato_MP_A#2_RR6.opus

<region>
hivel=51
key=A2
lovel=26
sample=Timpani_staccato_MP_A2_RR6.opus

<region>
hivel=51
key=A3
lovel=26
offset=1332
sample=Timpani_staccato_MP_A3_RR6.opus

<region>
hivel=51
key=B2
lovel=26
offset=1974
sample=Timpani_staccato_MP_B2_RR6.opus

<region>
hivel=51
key=C#2
lovel=26
offset=3246
sample=Timpani_staccato_MP_C#2_RR6.opus

<region>
hivel=51
key=C#3
lovel=26
sample=Timpani_staccato_MP_C#3_RR6.opus

<region>
hivel=51
key=C2
lovel=26
offset=2667
sample=Timpani_staccato_MP_C2_RR6.opus

<region>
hivel=51
key=C3
lovel=26
offset=973
sample=Timpani_staccato_MP_C3_RR6.opus

<region>
hivel=51
key=D#2
lovel=26
sample=Timpani_staccato_MP_D#2_RR6.opus

<region>
hivel=51
key=D#3
lovel=26
sample=Timpani_staccato_MP_D#3_RR6.opus

<region>
hivel=51
key=D2
lovel=26
offset=3378
sample=Timpani_staccato_MP_D2_RR6.opus

<region>
hivel=51
key=D3
lovel=26
offset=761
sample=Timpani_staccato_MP_D3_RR6.opus

<region>
hivel=51
key=E2
lovel=26
offset=2115
sample=Timpani_staccato_MP_E2_RR6.opus

<region>
hivel=51
key=E3
lovel=26
sample=Timpani_staccato_MP_E3_RR6.opus

<region>
hivel=51
key=F#2
lovel=26
sample=Timpani_staccato_MP_F#2_RR6.opus

<region>
hivel=51
key=F#3
lovel=26
sample=Timpani_staccato_MP_F#3_RR6.opus

<region>
hivel=51
key=F2
lovel=26
offset=952
sample=Timpani_staccato_MP_F2_RR6.opus

<region>
hivel=51
key=F3
lovel=26
offset=648
sample=Timpani_staccato_MP_F3_RR6.opus

<region>
hivel=51
key=G#2
lovel=26
offset=2287
sample=Timpani_staccato_MP_G#2_RR6.opus

<region>
hivel=51
key=G#3
lovel=26
sample=Timpani_staccato_MP_G#3_RR6.opus

<region>
hivel=51
key=G2
lovel=26
sample=Timpani_staccato_MP_G2_RR6.opus

<region>
hivel=51
key=G3
lovel=26
sample=Timpani_staccato_MP_G3_RR6.opus

<region>
hivel=25
key=A#2
lovel=0
offset=2657
sample=Timpani_staccato_P_A#2_RR6.opus

<region>
hivel=25
key=A2
lovel=0
offset=2866
sample=Timpani_staccato_P_A2_RR6.opus

<region>
hivel=25
key=A3
lovel=0
offset=2129
sample=Timpani_staccato_P_A3_RR6.opus

<region>
hivel=25
key=B2
lovel=0
sample=Timpani_staccato_P_B2_RR6.opus

<region>
hivel=25
key=C#2
lovel=0
offset=2900
sample=Timpani_staccato_P_C#2_RR6.opus

<region>
hivel=25
key=C#3
lovel=0
offset=2569
sample=Timpani_staccato_P_C#3_RR6.opus

<region>
hivel=25
key=C2
lovel=0
sample=Timpani_staccato_P_C2_RR6.opus

<region>
hivel=25
key=C3
lovel=0
offset=2258
sample=Timpani_staccato_P_C3_RR6.opus

<region>
hivel=25
key=D#2
lovel=0
offset=1270
sample=Timpani_staccato_P_D#2_RR6.opus

<region>
hivel=25
key=D#3
lovel=0
offset=3774
sample=Timpani_staccato_P_D#3_RR6.opus

<region>
hivel=25
key=D2
lovel=0
offset=5128
sample=Timpani_staccato_P_D2_RR6.opus

<region>
hivel=25
key=D3
lovel=0
offset=1398
sample=Timpani_staccato_P_D3_RR6.opus

<region>
hivel=25
key=E2
lovel=0
sample=Timpani_staccato_P_E2_RR6.opus

<region>
hivel=25
key=E3
lovel=0
sample=Timpani_staccato_P_E3_RR6.opus

<region>
hivel=25
key=F#2
lovel=0
offset=1138
sample=Timpani_staccato_P_F#2_RR6.opus

<region>
hivel=25
key=F#3
lovel=0
offset=2692
sample=Timpani_staccato_P_F#3_RR6.opus

<region>
hivel=25
key=F2
lovel=0
offset=2149
sample=Timpani_staccato_P_F2_RR6.opus

<region>
hivel=25
key=F3
lovel=0
sample=Timpani_staccato_P_F3_RR6.opus

<region>
hivel=25
key=G#2
lovel=0
offset=1032
sample=Timpani_staccato_P_G#2_RR6.opus

<region>
hivel=25
key=G#3
lovel=0
sample=Timpani_staccato_P_G#3_RR6.opus

<region>
hivel=25
key=G2
lovel=0
offset=1403
sample=Timpani_staccato_P_G2_RR6.opus

<region>
hivel=25
key=G3
lovel=0
sample=Timpani_staccato_P_G3_RR6.opus

<group>
group_label=RR7
seq_length=4
seq_position=3

<region>
hivel=103
key=A#2
lovel=78
sample=Timpani_staccato_F_A#2_RR7.opus

<region>
hivel=103
key=A2
lovel=78
sample=Timpani_staccato_F_A2_RR7.opus

<region>
hivel=103
key=A3
lovel=78
sample=Timpani_staccato_F_A3_RR7.opus

<region>
hivel=103
key=B2
lovel=78
sample=Timpani_staccato_F_B2_RR7.opus

<region>
hivel=103
key=C#2
lovel=78
sample=Timpani_staccato_F_C#2_RR7.opus

<region>
hivel=103
key=C#3
lovel=78
sample=Timpani_staccato_F_C#3_RR7.opus

<region>
hivel=103
key=C2
lovel=78
sample=Timpani_staccato_F_C2_RR7.opus

<region>
hivel=103
key=C3
lovel=78
sample=Timpani_staccato_F_C3_RR7.opus

<region>
hivel=103
key=D#2
lovel=78
sample=Timpani_staccato_F_D#2_RR7.opus

<region>
hivel=103
key=D#3
lovel=78
sample=Timpani_staccato_F_D#3_RR7.opus

<region>
hivel=103
key=D2
lovel=78
sample=Timpani_staccato_F_D2_RR7.opus

<region>
hivel=103
key=D3
lovel=78
sample=Timpani_staccato_F_D3_RR7.opus

<region>
hivel=103
key=E2
lovel=78
sample=Timpani_staccato_F_E2_RR7.opus

<region>
hivel=103
key=E3
lovel=78
sample=Timpani_staccato_F_E3_RR7.opus

<region>
hivel=103
key=F#2
lovel=78
sample=Timpani_staccato_F_F#2_RR7.opus

<region>
hivel=103
key=F#3
lovel=78
sample=Timpani_staccato_F_F#3_RR7.opus

<region>
hivel=103
key=F2
lovel=78
sample=Timpani_staccato_F_F2_RR7.opus

<region>
hivel=103
key=F3
lovel=78
sample=Timpani_staccato_F_F3_RR7.opus

<region>
hivel=103
key=G#2
lovel=78
sample=Timpani_staccato_F_G#2_RR7.opus

<region>
hivel=103
key=G#3
lovel=78
sample=Timpani_staccato_F_G#3_RR7.opus

<region>
hivel=103
key=G2
lovel=78
sample=Timpani_staccato_F_G2_RR7.opus

<region>
hivel=103
key=G3
lovel=78
sample=Timpani_staccato_F_G3_RR7.opus

<region>
hivel=127
key=A#2
lovel=104
sample=Timpani_staccato_FF_A#2_RR7.opus

<region>
hivel=127
key=A2
lovel=104
sample=Timpani_staccato_FF_A2_RR7.opus

<region>
hivel=127
key=A3
lovel=104
sample=Timpani_staccato_FF_A3_RR7.opus

<region>
hivel=127
key=B2
lovel=104
sample=Timpani_staccato_FF_B2_RR7.opus

<region>
hivel=127
key=C#2
lovel=104
sample=Timpani_staccato_FF_C#2_RR7.opus

<region>
hivel=127
key=C#3
lovel=104
sample=Timpani_staccato_FF_C#3_RR7.opus

<region>
hivel=127
key=C2
lovel=104
offset=167
sample=Timpani_staccato_FF_C2_RR7.opus

<region>
hivel=127
key=C3
lovel=104
sample=Timpani_staccato_FF_C3_RR7.opus

<region>
hivel=127
key=D#2
lovel=104
sample=Timpani_staccato_FF_D#2_RR7.opus

<region>
hivel=127
key=D#3
lovel=104
sample=Timpani_staccato_FF_D#3_RR7.opus

<region>
hivel=127
key=D2
lovel=104
sample=Timpani_staccato_FF_D2_RR7.opus

<region>
hivel=127
key=D3
lovel=104
sample=Timpani_staccato_FF_D3_RR7.opus

<region>
hivel=127
key=E2
lovel=104
sample=Timpani_staccato_FF_E2_RR7.opus

<region>
hivel=127
key=E3
lovel=104
sample=Timpani_staccato_FF_E3_RR7.opus

<region>
hivel=127
key=F#2
lovel=104
sample=Timpani_staccato_FF_F#2_RR7.opus

<region>
hivel=127
key=F#3
lovel=104
sample=Timpani_staccato_FF_F#3_RR7.opus

<region>
hivel=127
key=F2
lovel=104
sample=Timpani_staccato_FF_F2_RR7.opus

<region>
hivel=127
key=F3
lovel=104
sample=Timpani_staccato_FF_F3_RR7.opus

<region>
hivel=127
key=G#2
lovel=104
sample=Timpani_staccato_FF_G#2_RR7.opus

<region>
hivel=127
key=G#3
lovel=104
sample=Timpani_staccato_FF_G#3_RR7.opus

<region>
hivel=127
key=G2
lovel=104
sample=Timpani_staccato_FF_G2_RR7.opus

<region>
hivel=127
key=G3
lovel=104
sample=Timpani_staccato_FF_G3_RR7.opus

<region>
hivel=77
key=A#2
lovel=52
sample=Timpani_staccato_MF_A#2_RR7.opus

<region>
hivel=77
key=A2
lovel=52
sample=Timpani_staccato_MF_A2_RR7.opus

<region>
hivel=77
key=A3
lovel=52
sample=Timpani_staccato_MF_A3_RR7.opus

<region>
hivel=77
key=B2
lovel=52
sample=Timpani_staccato_MF_B2_RR7.opus

<region>
hivel=77
key=C#2
lovel=52
sample=Timpani_staccato_MF_C#2_RR7.opus

<region>
hivel=77
key=C#3
lovel=52
sample=Timpani_staccato_MF_C#3_RR7.opus

<region>
hivel=77
key=C2
lovel=52
offset=6386
sample=Timpani_staccato_MF_C2_RR7.opus

<region>
hivel=77
key=C3
lovel=52
sample=Timpani_staccato_MF_C3_RR7.opus

<region>
hivel=77
key=D#2
lovel=52
sample=Timpani_staccato_MF_D#2_RR7.opus

<region>
hivel=77
key=D#3
lovel=52
sample=Timpani_staccato_MF_D#3_RR7.opus

<region>
hivel=77
key=D2
lovel=52
sample=Timpani_staccato_MF_D2_RR7.opus

<region>
hivel=77
key=D3
lovel=52
sample=Timpani_staccato_MF_D3_RR7.opus

<region>
hivel=77
key=E2
lovel=52
sample=Timpani_staccato_MF_E2_RR7.opus

<region>
hivel=77
key=E3
lovel=52
sample=Timpani_staccato_MF_E3_RR7.opus

<region>
hivel=77
key=F#2
lovel=52
sample=Timpani_staccato_MF_F#2_RR7.opus

<region>
hivel=77
key=F#3
lovel=52
sample=Timpani_staccato_MF_F#3_RR7.opus

<region>
hivel=77
key=F2
lovel=52
sample=Timpani_staccato_MF_F2_RR7.opus

<region>
hivel=77
key=F3
lovel=52
sample=Timpani_staccato_MF_F3_RR7.opus

<region>
hivel=77
key=G#2
lovel=52
sample=Timpani_staccato_MF_G#2_RR7.opus

<region>
hivel=77
key=G#3
lovel=52
sample=Timpani_staccato_MF_G#3_RR7.opus

<region>
hivel=77
key=G2
lovel=52
sample=Timpani_staccato_MF_G2_RR7.opus

<region>
hivel=77
key=G3
lovel=52
sample=Timpani_staccato_MF_G3_RR7.opus

<region>
hivel=51
key=A#2
lovel=26
offset=632
sample=Timpani_staccato_MP_A#2_RR7.opus

<region>
hivel=51
key=A2
lovel=26
offset=1570
sample=Timpani_staccato_MP_A2_RR7.opus

<region>
hivel=51
key=A3
lovel=26
sample=Timpani_staccato_MP_A3_RR7.opus

<region>
hivel=51
key=B2
lovel=26
offset=3202
sample=Timpani_staccato_MP_B2_RR7.opus

<region>
hivel=51
key=C#2
lovel=26
sample=Timpani_staccato_MP_C#2_RR7.opus

<region>
hivel=51
key=C#3
lovel=26
offset=980
sample=Timpani_staccato_MP_C#3_RR7.opus

<region>
hivel=51
key=C2
lovel=26
offset=4325
sample=Timpani_staccato_MP_C2_RR7.opus

<region>
hivel=51
key=C3
lovel=26
sample=Timpani_staccato_MP_C3_RR7.opus

<region>
hivel=51
key=D#2
lovel=26
offset=4396
sample=Timpani_staccato_MP_D#2_RR7.opus

<region>
hivel=51
key=D#3
lovel=26
offset=2885
sample=Timpani_staccato_MP_D#3_RR7.opus

<region>
hivel=51
key=D2
lovel=26
offset=6352
sample=Timpani_staccato_MP_D2_RR7.opus

<region>
hivel=51
key=D3
lovel=26
sample=Timpani_staccato_MP_D3_RR7.opus

<region>
hivel=51
key=E2
lovel=26
offset=5132
sample=Timpani_staccato_MP_E2_RR7.opus

<region>
hivel=51
key=E3
lovel=26
sample=Timpani_staccato_MP_E3_RR7.opus

<region>
hivel=51
key=F#2
lovel=26
offset=2058
sample=Timpani_staccato_MP_F#2_RR7.opus

<region>
hivel=51
key=F#3
lovel=26
sample=Timpani_staccato_MP_F#3_RR7.opus

<region>
hivel=51
key=F2
lovel=26
offset=967
sample=Timpani_staccato_MP_F2_RR7.opus

<region>
hivel=51
key=F3
lovel=26
offset=2204
sample=Timpani_staccato_MP_F3_RR7.opus

<region>
hivel=51
key=G#2
lovel=26
sample=Timpani_staccato_MP_G#2_RR7.opus

<region>
hivel=51
key=G#3
lovel=26
sample=Timpani_staccato_MP_G#3_RR7.opus

<region>
hivel=51
key=G2
lovel=26
sample=Timpani_staccato_MP_G2_RR7.opus

<region>
hivel=51
key=G3
lovel=26
sample=Timpani_staccato_MP_G3_RR7.opus

<region>
hivel=25
key=A#2
lovel=0
offset=1278
sample=Timpani_staccato_P_A#2_RR7.opus

<region>
hivel=25
key=A2
lovel=0
offset=3926
sample=Timpani_staccato_P_A2_RR7.opus

<region>
hivel=25
key=A3
lovel=0
offset=328
sample=Timpani_staccato_P_A3_RR7.opus

<region>
hivel=25
key=B2
lovel=0
sample=Timpani_staccato_P_B2_RR7.opus

<region>
hivel=25
key=C#2
lovel=0
offset=4834
sample=Timpani_staccato_P_C#2_RR7.opus

<region>
hivel=25
key=C#3
lovel=0
sample=Timpani_staccato_P_C#3_RR7.opus

<region>
hivel=25
key=C2
lovel=0
offset=1885
sample=Timpani_staccato_P_C2_RR7.opus

<region>
hivel=25
key=C3
lovel=0
offset=1300
sample=Timpani_staccato_P_C3_RR7.opus

<region>
hivel=25
key=D#2
lovel=0
offset=4398
sample=Timpani_staccato_P_D#2_RR7.opus

<region>
hivel=25
key=D#3
lovel=0
offset=1507
sample=Timpani_staccato_P_D#3_RR7.opus

<region>
hivel=25
key=D2
lovel=0
sample=Timpani_staccato_P_D2_RR7.opus

<region>
hivel=25
key=D3
lovel=0
offset=4288
sample=Timpani_staccato_P_D3_RR7.opus

<region>
hivel=25
key=E2
lovel=0
offset=4288
sample=Timpani_staccato_P_E2_RR7.opus

<region>
hivel=25
key=E3
lovel=0
offset=868
sample=Timpani_staccato_P_E3_RR7.opus

<region>
hivel=25
key=F#2
lovel=0
offset=4303
sample=Timpani_staccato_P_F#2_RR7.opus

<region>
hivel=25
key=F#3
lovel=0
offset=359
sample=Timpani_staccato_P_F#3_RR7.opus

<region>
hivel=25
key=F2
lovel=0
offset=3146
sample=Timpani_staccato_P_F2_RR7.opus

<region>
hivel=25
key=F3
lovel=0
sample=Timpani_staccato_P_F3_RR7.opus

<region>
hivel=25
key=G#2
lovel=0
offset=2186
sample=Timpani_staccato_P_G#2_RR7.opus

<region>
hivel=25
key=G#3
lovel=0
offset=1558
sample=Timpani_staccato_P_G#3_RR7.opus

<region>
hivel=25
key=G2
lovel=0
offset=2485
sample=Timpani_staccato_P_G2_RR7.opus

<region>
hivel=25
key=G3
lovel=0
offset=1264
sample=Timpani_staccato_P_G3_RR7.opus

<group>
group_label=RR8
seq_length=4
seq_position=4

<region>
hivel=103
key=A#2
lovel=78
sample=Timpani_staccato_F_A#2_RR8.opus

<region>
hivel=103
key=A2
lovel=78
sample=Timpani_staccato_F_A2_RR8.opus

<region>
hivel=103
key=A3
lovel=78
sample=Timpani_staccato_F_A3_RR8.opus

<region>
hivel=103
key=B2
lovel=78
sample=Timpani_staccato_F_B2_RR8.opus

<region>
hivel=103
key=C#2
lovel=78
sample=Timpani_staccato_F_C#2_RR8.opus

<region>
hivel=103
key=C#3
lovel=78
sample=Timpani_staccato_F_C#3_RR8.opus

<region>
hivel=103
key=C2
lovel=78
sample=Timpani_staccato_F_C2_RR8.opus

<region>
hivel=103
key=C3
lovel=78
sample=Timpani_staccato_F_C3_RR8.opus

<region>
hivel=103
key=D#2
lovel=78
sample=Timpani_staccato_F_D#2_RR8.opus

<region>
hivel=103
key=D#3
lovel=78
sample=Timpani_staccato_F_D#3_RR8.opus

<region>
hivel=103
key=D2
lovel=78
sample=Timpani_staccato_F_D2_RR8.opus

<region>
hivel=103
key=D3
lovel=78
sample=Timpani_staccato_F_D3_RR8.opus

<region>
hivel=103
key=E2
lovel=78
sample=Timpani_staccato_F_E2_RR8.opus

<region>
hivel=103
key=E3
lovel=78
sample=Timpani_staccato_F_E3_RR8.opus

<region>
hivel=103
key=F#2
lovel=78
sample=Timpani_staccato_F_F#2_RR8.opus

<region>
hivel=103
key=F#3
lovel=78
sample=Timpani_staccato_F_F#3_RR8.opus

<region>
hivel=103
key=F2
lovel=78
sample=Timpani_staccato_F_F2_RR8.opus

<region>
hivel=103
key=F3
lovel=78
sample=Timpani_staccato_F_F3_RR8.opus

<region>
hivel=103
key=G#2
lovel=78
sample=Timpani_staccato_F_G#2_RR8.opus

<region>
hivel=103
key=G#3
lovel=78
sample=Timpani_staccato_F_G#3_RR8.opus

<region>
hivel=103
key=G2
lovel=78
sample=Timpani_staccato_F_G2_RR8.opus

<region>
hivel=103
key=G3
lovel=78
sample=Timpani_staccato_F_G3_RR8.opus

<region>
hivel=127
key=A#2
lovel=104
sample=Timpani_staccato_FF_A#2_RR8.opus

<region>
hivel=127
key=A2
lovel=104
sample=Timpani_staccato_FF_A2_RR8.opus

<region>
hivel=127
key=A3
lovel=104
sample=Timpani_staccato_FF_A3_RR8.opus

<region>
hivel=127
key=B2
lovel=104
sample=Timpani_staccato_FF_B2_RR8.opus

<region>
hivel=127
key=C#2
lovel=104
sample=Timpani_staccato_FF_C#2_RR8.opus

<region>
hivel=127
key=C#3
lovel=104
sample=Timpani_staccato_FF_C#3_RR8.opus

<region>
hivel=127
key=C2
lovel=104
sample=Timpani_staccato_FF_C2_RR8.opus

<region>
hivel=127
key=C3
lovel=104
sample=Timpani_staccato_FF_C3_RR8.opus

<region>
hivel=127
key=D#2
lovel=104
sample=Timpani_staccato_FF_D#2_RR8.opus

<region>
hivel=127
key=D#3
lovel=104
sample=Timpani_staccato_FF_D#3_RR8.opus

<region>
hivel=127
key=D2
lovel=104
sample=Timpani_staccato_FF_D2_RR8.opus

<region>
hivel=127
key=D3
lovel=104
sample=Timpani_staccato_FF_D3_RR8.opus

<region>
hivel=127
key=E2
lovel=104
sample=Timpani_staccato_FF_E2_RR8.opus

<region>
hivel=127
key=E3
lovel=104
sample=Timpani_staccato_FF_E3_RR8.opus

<region>
hivel=127
key=F#2
lovel=104
sample=Timpani_staccato_FF_F#2_RR8.opus

<region>
hivel=127
key=F#3
lovel=104
sample=Timpani_staccato_FF_F#3_RR8.opus

<region>
hivel=127
key=F2
lovel=104
sample=Timpani_staccato_FF_F2_RR8.opus

<region>
hivel=127
key=F3
lovel=104
sample=Timpani_staccato_FF_F3_RR8.opus

<region>
hivel=127
key=G#2
lovel=104
offset=1243
sample=Timpani_staccato_FF_G#2_RR8.opus

<region>
hivel=127
key=G#3
lovel=104
sample=Timpani_staccato_FF_G#3_RR8.opus

<region>
hivel=127
key=G2
lovel=104
sample=Timpani_staccato_FF_G2_RR8.opus

<region>
hivel=127
key=G3
lovel=104
sample=Timpani_staccato_FF_G3_RR8.opus

<region>
hivel=77
key=A#2
lovel=52
sample=Timpani_staccato_MF_A#2_RR8.opus

<region>
hivel=77
key=A2
lovel=52
sample=Timpani_staccato_MF_A2_RR8.opus

<region>
hivel=77
key=A3
lovel=52
sample=Timpani_staccato_MF_A3_RR8.opus

<region>
hivel=77
key=B2
lovel=52
sample=Timpani_staccato_MF_B2_RR8.opus

<region>
hivel=77
key=C#2
lovel=52
sample=Timpani_staccato_MF_C#2_RR8.opus

<region>
hivel=77
key=C#3
lovel=52
sample=Timpani_staccato_MF_C#3_RR8.opus

<region>
hivel=77
key=C2
lovel=52
sample=Timpani_staccato_MF_C2_RR8.opus

<region>
hivel=77
key=C3
lovel=52
sample=Timpani_staccato_MF_C3_RR8.opus

<region>
hivel=77
key=D#2
lovel=52
sample=Timpani_staccato_MF_D#2_RR8.opus

<region>
hivel=77
key=D#3
lovel=52
sample=Timpani_staccato_MF_D#3_RR8.opus

<region>
hivel=77
key=D2
lovel=52
sample=Timpani_staccato_MF_D2_RR8.opus

<region>
hivel=77
key=D3
lovel=52
sample=Timpani_staccato_MF_D3_RR8.opus

<region>
hivel=77
key=E2
lovel=52
sample=Timpani_staccato_MF_E2_RR8.opus

<region>
hivel=77
key=E3
lovel=52
sample=Timpani_staccato_MF_E3_RR8.opus

<region>
hivel=77
key=F#2
lovel=52
sample=Timpani_staccato_MF_F#2_RR8.opus

<region>
hivel=77
key=F#3
lovel=52
sample=Timpani_staccato_MF_F#3_RR8.opus

<region>
hivel=77
key=F2
lovel=52
offset=4380
sample=Timpani_staccato_MF_F2_RR8.opus

<region>
hivel=77
key=F3
lovel=52
sample=Timpani_staccato_MF_F3_RR8.opus

<region>
hivel=77
key=G#2
lovel=52
sample=Timpani_staccato_MF_G#2_RR8.opus

<region>
hivel=77
key=G#3
lovel=52
sample=Timpani_staccato_MF_G#3_RR8.opus

<region>
hivel=77
key=G2
lovel=52
sample=Timpani_staccato_MF_G2_RR8.opus

<region>
hivel=77
key=G3
lovel=52
sample=Timpani_staccato_MF_G3_RR8.opus

<region>
hivel=51
key=A#2
lovel=26
sample=Timpani_staccato_MP_A#2_RR8.opus

<region>
hivel=51
key=A2
lovel=26
offset=3254
sample=Timpani_staccato_MP_A2_RR8.opus

<region>
hivel=51
key=A3
lovel=26
sample=Timpani_staccato_MP_A3_RR8.opus

<region>
hivel=51
key=B2
lovel=26
offset=3213
sample=Timpani_staccato_MP_B2_RR8.opus

<region>
hivel=51
key=C#2
lovel=26
offset=4126
sample=Timpani_staccato_MP_C#2_RR8.opus

<region>
hivel=51
key=C#3
lovel=26
offset=2916
sample=Timpani_staccato_MP_C#3_RR8.opus

<region>
hivel=51
key=C2
lovel=26
offset=4946
sample=Timpani_staccato_MP_C2_RR8.opus

<region>
hivel=51
key=C3
lovel=26
offset=2449
sample=Timpani_staccato_MP_C3_RR8.opus

<region>
hivel=51
key=D#2
lovel=26
offset=5317
sample=Timpani_staccato_MP_D#2_RR8.opus

<region>
hivel=51
key=D#3
lovel=26
offset=3289
sample=Timpani_staccato_MP_D#3_RR8.opus

<region>
hivel=51
key=D2
lovel=26
offset=4018
sample=Timpani_staccato_MP_D2_RR8.opus

<region>
hivel=51
key=D3
lovel=26
sample=Timpani_staccato_MP_D3_RR8.opus

<region>
hivel=51
key=E2
lovel=26
offset=5459
sample=Timpani_staccato_MP_E2_RR8.opus

<region>
hivel=51
key=E3
lovel=26
sample=Timpani_staccato_MP_E3_RR8.opus

<region>
hivel=51
key=F#2
lovel=26
offset=1856
sample=Timpani_staccato_MP_F#2_RR8.opus

<region>
hivel=51
key=F#3
lovel=26
sample=Timpani_staccato_MP_F#3_RR8.opus

<region>
hivel=51
key=F2
lovel=26
offset=1012
sample=Timpani_staccato_MP_F2_RR8.opus

<region>
hivel=51
key=F3
lovel=26
offset=1283
sample=Timpani_staccato_MP_F3_RR8.opus

<region>
hivel=51
key=G#2
lovel=26
offset=1233
sample=Timpani_staccato_MP_G#2_RR8.opus

<region>
hivel=51
key=G#3
lovel=26
sample=Timpani_staccato_MP_G#3_RR8.opus

<region>
hivel=51
key=G2
lovel=26
sample=Timpani_staccato_MP_G2_RR8.opus

<region>
hivel=51
key=G3
lovel=26
offset=1286
sample=Timpani_staccato_MP_G3_RR8.opus

<region>
hivel=25
key=A#2
lovel=0
offset=2934
sample=Timpani_staccato_P_A#2_RR8.opus

<region>
hivel=25
key=A2
lovel=0
offset=994
sample=Timpani_staccato_P_A2_RR8.opus

<region>
hivel=25
key=A3
lovel=0
sample=Timpani_staccato_P_A3_RR8.opus

<region>
hivel=25
key=B2
lovel=0
sample=Timpani_staccato_P_B2_RR8.opus

<region>
hivel=25
key=C#2
lovel=0
offset=7061
sample=Timpani_staccato_P_C#2_RR8.opus

<region>
hivel=25
key=C#3
lovel=0
sample=Timpani_staccato_P_C#3_RR8.opus

<region>
hivel=25
key=C2
lovel=0
offset=6288
sample=Timpani_staccato_P_C2_RR8.opus

<region>
hivel=25
key=C3
lovel=0
offset=892
sample=Timpani_staccato_P_C3_RR8.opus

<region>
hivel=25
key=D#2
lovel=0
offset=5318
sample=Timpani_staccato_P_D#2_RR8.opus

<region>
hivel=25
key=D#3
lovel=0
offset=2815
sample=Timpani_staccato_P_D#3_RR8.opus

<region>
hivel=25
key=D2
lovel=0
sample=Timpani_staccato_P_D2_RR8.opus

<region>
hivel=25
key=D3
lovel=0
offset=2400
sample=Timpani_staccato_P_D3_RR8.opus

<region>
hivel=25
key=E2
lovel=0
offset=5206
sample=Timpani_staccato_P_E2_RR8.opus

<region>
hivel=25
key=E3
lovel=0
offset=1633
sample=Timpani_staccato_P_E3_RR8.opus

<region>
hivel=25
key=F#2
lovel=0
offset=575
sample=Timpani_staccato_P_F#2_RR8.opus

<region>
hivel=25
key=F#3
lovel=0
offset=2172
sample=Timpani_staccato_P_F#3_RR8.opus

<region>
hivel=25
key=F2
lovel=0
offset=1871
sample=Timpani_staccato_P_F2_RR8.opus

<region>
hivel=25
key=F3
lovel=0
sample=Timpani_staccato_P_F3_RR8.opus

<region>
hivel=25
key=G#2
lovel=0
offset=1637
sample=Timpani_staccato_P_G#2_RR8.opus

<region>
hivel=25
key=G#3
lovel=0
sample=Timpani_staccato_P_G#3_RR8.opus

<region>
hivel=25
key=G2
lovel=0
offset=1205
sample=Timpani_staccato_P_G2_RR8.opus

<region>
hivel=25
key=G3
lovel=0
offset=543
sample=Timpani_staccato_P_G3_RR8.opus

